<svg xmlns="http://www.w3.org/2000/svg" xmlns:xlink="http://www.w3.org/1999/xlink" viewBox="0 0 62 62"><defs><linearGradient id="c" x1="50%" x2="50%" y1="78.291%" y2="-21.872%"><stop offset="0%" stop-color="#FFF" stop-opacity="0"/><stop offset="100%" stop-color="#FFF"/></linearGradient><path id="a" d="M.59 29.25C.59 13.584 13.243.89 28.856.89s28.263 12.694 28.263 28.36c0 15.665-12.651 28.36-28.263 28.36S.59 44.915.59 29.25z"/><mask id="b" width="60.528" height="60.719" x="-2" y="-2"><path fill="#fff" d="M-1.41-1.11h60.528v60.72H-1.409z"/><use xlink:href="#a"/></mask></defs><g fill="none" fill-rule="evenodd" transform="translate(2 1.162)"><use fill="#FFF" fill-opacity=".246" xlink:href="#a"/><use stroke="#FFF" stroke-width="4" mask="url(#b)" xlink:href="#a"/><path fill="url(#c)" d="M13.066 55.835A26.515 26.515 0 019.312 42.19c0-14.673 11.86-26.574 26.484-26.574 7.606 0 14.463 3.219 19.294 8.372a39.102 39.102 0 00-3.84-.188c-19.077 0-34.943 13.827-38.184 32.035z" opacity=".629" transform="rotate(-180 32.201 35.726)"/><ellipse cx="18.613" cy="17.195" fill="#FFF" opacity=".165" rx="8.309" ry="8.296"/><ellipse cx="29" cy="28.948" fill="#FFF" opacity=".497" rx="2.077" ry="2.074"/><ellipse cx="20.691" cy="41.393" fill="#FFF" opacity=".497" rx="2.077" ry="2.074"/><ellipse cx="49.081" cy="35.171" fill="#FFF" opacity=".497" rx="1.385" ry="1.383"/><ellipse cx="44.234" cy="46.924" fill="#FFF" opacity=".853" rx="2.077" ry="2.074"/><ellipse cx="20.691" cy="17.887" fill="#FFF" rx="3.462" ry="3.457"/><ellipse cx="29" cy="31.714" fill="#FFF" opacity=".152" rx="3.462" ry="3.457"/></g></svg>